<svg
        width="61"
        height="60"
        viewBox="0 0 61 60"
        fill="none"
        xmlns="http://www.w3.org/2000/svg"
      >
        <path
          d="M40.7756 27.6471C41.5444 27.6471 42.1819 28.2846 42.1819 29.0533C42.1819 29.8221 41.5444 30.4596 40.7756 30.4596C40.0069 30.4596 39.3694 29.8221 39.3694 29.0533C39.3694 28.2846 40.0069 27.6471 40.7756 27.6471Z"
          fill="#64748b"
        />
        <path
          d="M20.1506 27.6471C20.9194 27.6471 21.5569 28.2846 21.5569 29.0533C21.5569 29.8221 20.9194 30.4596 20.1506 30.4596C19.3819 30.4596 18.7444 29.8221 18.7444 29.0533C18.7444 28.2846 19.3819 27.6471 20.1506 27.6471Z"
          fill="#64748b"
        />
        <path
          d="M40.7756 2.80331H8.9006V57.1783H52.0256V14.0533"
          stroke="#64748b"
          strokeWidth="1.875"
          strokeMiterlimit="10"
          strokeLinecap="round"
          strokeLinejoin="round"
        />
        <path
          d="M40.7756 2.80331L51.9862 14.0533H40.7756V7.49081"
          stroke="#64748b"
          strokeWidth="1.875"
          strokeMiterlimit="10"
          strokeLinecap="round"
          strokeLinejoin="round"
        />
        <path
          d="M27.6506 34.6783C27.6506 33.1221 28.9069 31.8658 30.4631 31.8658C32.0194 31.8658 33.2756 33.1221 33.2756 34.6783"
          stroke="#455A64"
          strokeWidth="1.875"
          strokeMiterlimit="10"
          strokeLinecap="round"
          strokeLinejoin="round"
        />
        <path
          d="M39.3694 29.0533C39.3694 29.8221 40.0069 30.4596 40.7756 30.4596C41.5444 30.4596 42.1819 29.8221 42.1819 29.0533C42.1819 28.2846 41.5444 27.6471 40.7756 27.6471C40.0069 27.6471 39.3694 28.2846 39.3694 29.0533Z"
          stroke="#64748b"
          strokeWidth="1.875"
          strokeMiterlimit="10"
          strokeLinecap="round"
          strokeLinejoin="round"
        />
        <path
          d="M21.5569 29.0533C21.5569 29.8221 20.9194 30.4596 20.1506 30.4596C19.3819 30.4596 18.7444 29.8221 18.7444 29.0533C18.7444 28.2846 19.3819 27.6471 20.1506 27.6471C20.9194 27.6471 21.5569 28.2846 21.5569 29.0533Z"
          stroke="#64748b"
          strokeWidth="1.875"
          strokeMiterlimit="10"
          strokeLinecap="round"
          strokeLinejoin="round"
        />
        <path
          d="M40.7756 2.80331H8.9006V57.1783H52.0256V14.0533"
          stroke="#64748b"
          strokeWidth="1.875"
          strokeMiterlimit="10"
          strokeLinecap="round"
          strokeLinejoin="round"
        />
        <path
          d="M40.7756 2.80331L51.9862 14.0533H40.7756V7.49081"
          stroke="#64748b"
          strokeWidth="1.875"
          strokeMiterlimit="10"
          strokeLinecap="round"
          strokeLinejoin="round"
        />
        <path
          d="M27.6506 34.6783C27.6506 33.1221 28.9069 31.8658 30.4631 31.8658C32.0194 31.8658 33.2756 33.1221 33.2756 34.6783"
          stroke="#64748b"
          strokeWidth="1.875"
          strokeMiterlimit="10"
          strokeLinecap="round"
          strokeLinejoin="round"
        />
        <path
          d="M39.3694 29.0533C39.3694 29.8221 40.0069 30.4596 40.7756 30.4596C41.5444 30.4596 42.1819 29.8221 42.1819 29.0533C42.1819 28.2846 41.5444 27.6471 40.7756 27.6471C40.0069 27.6471 39.3694 28.2846 39.3694 29.0533Z"
          stroke="#64748b"
          strokeWidth="1.875"
          strokeMiterlimit="10"
          strokeLinecap="round"
          strokeLinejoin="round"
        />
        <path
          d="M21.5569 29.0533C21.5569 29.8221 20.9194 30.4596 20.1506 30.4596C19.3819 30.4596 18.7444 29.8221 18.7444 29.0533C18.7444 28.2846 19.3819 27.6471 20.1506 27.6471C20.9194 27.6471 21.5569 28.2846 21.5569 29.0533Z"
          stroke="#64748b"
          strokeWidth="1.875"
          strokeMiterlimit="10"
          strokeLinecap="round"
          strokeLinejoin="round"
        />
      </svg>